<?xml version="1.0" encoding="utf-8"?>
<!-- Generator: Adobe Illustrator 16.0.0, SVG Export Plug-In . SVG Version: 6.00 Build 0)  -->
<!DOCTYPE svg PUBLIC "-//W3C//DTD SVG 1.1//EN" "http://www.w3.org/Graphics/SVG/1.1/DTD/svg11.dtd">
<svg version="1.1" id="Layer_1" xmlns="http://www.w3.org/2000/svg" xmlns:xlink="http://www.w3.org/1999/xlink" x="0px" y="0px"
	 width="15px" height="15px" viewBox="0 0 15 15" enable-background="new 0 0 15 15" xml:space="preserve">
<path fill="#E3E3E3" d="M10.156,2.812c-2.589,0-4.688,2.099-4.688,4.687c0,2.589,2.099,4.688,4.688,4.688s4.688-2.099,4.688-4.688
	C14.844,4.911,12.745,2.812,10.156,2.812z M10.117,10.912c-4.434,0-4.434-6.875,0-6.875C14.551,4.037,14.551,10.912,10.117,10.912z"
	/>
<line fill="none" stroke="#E3E3E3" stroke-width="1.5" stroke-miterlimit="10" x1="0" y1="1.062" x2="13.521" y2="1.062"/>
<path fill="none" stroke="#E3E3E3" stroke-width="1.5" stroke-miterlimit="10" d="M0,3.562c1.951,0,3.902,0,5.854,0"/>
<line fill="none" stroke="#E3E3E3" stroke-width="1.5" stroke-miterlimit="10" x1="0" y1="6.146" x2="4.797" y2="6.146"/>
<line fill="none" stroke="#E3E3E3" stroke-width="1.5" stroke-miterlimit="10" x1="0" y1="8.729" x2="4.797" y2="8.729"/>
<line fill="none" stroke="#E3E3E3" stroke-width="1.5" stroke-miterlimit="10" x1="0" y1="11.312" x2="5.906" y2="11.312"/>
<line fill="none" stroke="#E3E3E3" stroke-width="1.5" stroke-miterlimit="10" x1="0" y1="13.938" x2="5.229" y2="13.938"/>
<line fill="none" stroke="#E3E3E3" stroke-width="1.5" stroke-miterlimit="10" x1="11.812" y1="11.063" x2="14.021" y2="14.23"/>
<path fill="#E3E3E3" d="M5.854,4.308c0,0,0.888-1.25,1.952-1.496c0.122-0.028-0.032,0.005,0.101,0.005
	c0.391,0-2.438,0.006-2.438,0.006l0.385,1.391"/>
<polygon fill="#E3E3E3" points="4.797,6.865 5.229,5.396 4.609,5.396 "/>
<polygon fill="#E3E3E3" points="4.797,7.975 5.229,9.459 4.797,9.459 "/>
<polygon fill="#E3E3E3" points="5.906,10.568 5.906,12.053 7.5,12.053 "/>
</svg>
