<?xml version="1.0" encoding="utf-8"?>
<!-- Generator: Adobe Illustrator 16.0.0, SVG Export Plug-In . SVG Version: 6.00 Build 0)  -->
<!DOCTYPE svg PUBLIC "-//W3C//DTD SVG 1.1//EN" "http://www.w3.org/Graphics/SVG/1.1/DTD/svg11.dtd">
<svg version="1.1" id="Layer_1" xmlns="http://www.w3.org/2000/svg" xmlns:xlink="http://www.w3.org/1999/xlink" x="0px" y="0px"
	 width="20px" height="20px" viewBox="0 0 20 20" enable-background="new 0 0 20 20" xml:space="preserve">
<path fill="#C4C4C4" d="M10,1.833c-3.99,0-7.37,2.575-8.591,6.151c0.21-0.043,0.435-0.067,0.674-0.067
	c0.641,0,1.276-0.113,1.705,0.161C4.648,5.647,6.645,4,10.001,4c9.028,0,9.028,14,0,14c-3.42,0-5.438-1.721-6.267-4.217
	c-0.42,0.258-1.032,0.134-1.65,0.134c-0.24,0-0.464-0.023-0.674-0.066C2.631,17.425,6.011,20,10,20c5.016,0,9.084-4.068,9.084-9.084
	C19.084,5.899,15.016,1.833,10,1.833z"/>
<polygon fill="#C4C4C4" points="0,9 7.042,9 7.042,7.371 11.875,10.916 7.049,14.616 7.036,12.781 0,12.781 "/>
<polygon fill="#C4C4C4" points="3.788,8.078 1.409,7.984 3.25,7.094 3.788,7.906 "/>
<polygon fill="#C4C4C4" points="3.734,13.783 1.41,13.851 3.156,14.781 "/>
</svg>
