<?xml version="1.0" encoding="utf-8"?>
<!-- Generator: Adobe Illustrator 16.0.0, SVG Export Plug-In . SVG Version: 6.00 Build 0)  -->
<!DOCTYPE svg PUBLIC "-//W3C//DTD SVG 1.1//EN" "http://www.w3.org/Graphics/SVG/1.1/DTD/svg11.dtd">
<svg version="1.1" id="Layer_1" xmlns="http://www.w3.org/2000/svg" xmlns:xlink="http://www.w3.org/1999/xlink" x="0px" y="0px"
	 width="15px" height="15px" viewBox="0 0 15 15" enable-background="new 0 0 15 15" xml:space="preserve">
<image overflow="visible" width="24" height="24" xlink:href="png/glyphicons-372-global.png"  transform="matrix(0.5703 0 0 0.5703 17.084 -0.9771)">
</image>
<ellipse fill="none" stroke="#E3E3E3" stroke-width="1.2" stroke-miterlimit="10" cx="7.5" cy="7.5" rx="6.864" ry="6.817"/>
<line fill="none" stroke="#E3E3E3" stroke-width="1.2" stroke-miterlimit="10" x1="7.5" y1="0.683" x2="7.5" y2="14.317"/>
<path fill="none" stroke="#E3E3E3" stroke-width="1.2" stroke-miterlimit="10" d="M7.5,0.866C4.92,1.271,3.425,4.013,3.425,7.5
	c0,3.665,1.824,6.388,4.594,6.543c-0.002-0.024-0.521,0.3-0.52,0.273"/>
<path fill="none" stroke="#E3E3E3" stroke-width="1.2" stroke-miterlimit="10" d="M7.5,13.982c2.58-0.409,4.193-3.188,4.188-6.675
	c-0.005-3.665-1.941-6.35-4.712-6.502C6.979,0.83,7.501,0.839,7.5,0.866"/>
<line fill="none" stroke="#E3E3E3" stroke-width="1.2" stroke-miterlimit="10" x1="0.636" y1="7.5" x2="14.364" y2="7.5"/>
<line fill="none" stroke="#E3E3E3" stroke-width="1.2" stroke-miterlimit="10" x1="1.917" y1="3.539" x2="13.094" y2="3.553"/>
<line fill="none" stroke="#E3E3E3" stroke-width="1.2" stroke-miterlimit="10" x1="1.917" y1="11.463" x2="13.094" y2="11.446"/>
</svg>
