<?xml version="1.0" encoding="utf-8"?>
<!-- Generator: Adobe Illustrator 16.0.0, SVG Export Plug-In . SVG Version: 6.00 Build 0)  -->
<!DOCTYPE svg PUBLIC "-//W3C//DTD SVG 1.1//EN" "http://www.w3.org/Graphics/SVG/1.1/DTD/svg11.dtd">
<svg version="1.1" id="Layer_1" xmlns="http://www.w3.org/2000/svg" xmlns:xlink="http://www.w3.org/1999/xlink" x="0px" y="0px"
	 width="20px" height="20px" viewBox="-2.5 -2.5 20 20" enable-background="new -2.5 -2.5 20 20" xml:space="preserve">
<path fill="#E3E3E3" d="M7.5-2.375c-5.454,0-9.875,4.421-9.875,9.875c0,5.455,4.421,9.875,9.875,9.875
	c5.455,0,9.875-4.42,9.875-9.875C17.375,2.046,12.955-2.375,7.5-2.375z M15.011,7.204c-0.057,0.265-0.133,0.527-0.248,0.794
	c-0.205,0.475-0.689,0.391-0.971,0.09c-0.172-0.017-0.31-0.082-0.401-0.188c-0.163-0.043-0.318-0.116-0.432-0.262
	c-0.574-0.738-1.061-0.608-1.623-0.338c-0.026,0.039-0.042,0.081-0.079,0.117c-0.091,0.092-0.183,0.184-0.273,0.275
	c-0.26,0.259-0.572,0.226-0.804,0.065c-0.137,0.009-0.271-0.017-0.387-0.09C9.715,7.699,9.631,7.719,9.531,7.719
	c-0.06,0-0.104-0.019-0.155-0.03c-0.004,0.005-0.007,0.013-0.011,0.02C9.364,7.713,9.366,7.715,9.366,7.719L9.289,8.413
	C9.515,8.842,9.516,9.365,9.38,9.939c-0.244,1.04-1.628,6.127-3.463,4.468c-0.806-0.729-1.032-3.122-0.83-4.117
	c0.039-0.198-0.19-0.511-0.499-0.854c-0.403-0.108-0.78-0.301-1.202-0.29C2.981,9.154,2.604,8.714,2.751,8.312
	C2.808,8.156,2.872,8.024,2.95,7.898C2.963,7.734,3.003,7.577,3.08,7.38c0,0,0.001-0.001,0.001-0.002
	c-0.033-0.626,0.41-1.187,1.047-1.426C4.533,5.8,4.932,5.731,5.334,5.828c0.046-0.01,0.084-0.028,0.137-0.028
	c0.257,0,0.427,0.127,0.528,0.297c0.774,0.361,1.448,0.592,2.318,0.579C8.296,6.572,8.293,6.468,8.314,6.363
	C8.206,6.126,8.235,5.821,8.405,5.608C8.936,4.96,9.718,4.93,8.021,4.462C7.465,4.593,6.885,4.625,6.314,4.593
	c-0.095,0.062-0.206,0.11-0.35,0.11c-0.003,0-0.004-0.002-0.007-0.002C5.417,5.288,4.538,4.383,5.06,3.744
	C5.242,3.52,5.461,3.376,5.694,3.261c0.079-0.235,0.277-0.424,0.599-0.424c0.013,0,0.021,0.005,0.033,0.007
	c0.008,0,0.013-0.007,0.022-0.007c0.004,0,0.007,0.003,0.012,0.003c0.064-0.024,0.123-0.056,0.203-0.056
	c0.003-0.049-0.008-0.098,0.004-0.146c-0.021-0.023-0.038-0.05-0.06-0.073c-0.202-0.214-0.42-0.469-0.42-0.784
	c0-0.085,0.018-0.162,0.038-0.238c-0.009-0.124-0.01-0.231,0.028-0.362c0.092-0.316,0.381-0.473,0.679-0.45
	c0.102-0.082,0.228-0.143,0.396-0.143c0.119,0,0.217,0.032,0.305,0.075c0.11-0.008,0.223-0.014,0.323-0.005
	C8.18,0.684,8.549,0.892,8.699,1.195C8.717,1.229,8.732,1.271,8.748,1.31c0.06,0.017,0.12,0.041,0.182,0.082
	c0.181,0.114,0.33,0.17,0.545,0.184c0.051,0.003,0.087,0.026,0.13,0.04C9.662,1.547,9.74,1.497,9.832,1.462
	c0.146-0.348,0.514-0.548,0.94-0.606c0.067-0.026,0.139-0.044,0.222-0.046c0.037-0.023,0.075-0.047,0.117-0.065
	c0.041-0.026,0.102-0.028,0.151-0.046c0.097-0.064,0.206-0.112,0.353-0.112c0.136,0,0.241,0.042,0.334,0.098
	c0.027-0.003,0.047-0.016,0.076-0.016c0.162,0,0.283,0.057,0.383,0.134c0.057,0.022,0.111,0.054,0.165,0.099
	c0.688,0.579,1.447,1.056,1.955,1.821c0.182,0.274,0.327,0.562,0.461,0.855c0.158,0.232,0.283,0.491,0.389,0.783
	c0.02,0.061,0.019,0.113,0.023,0.168c0.237,0.615,0.35,1.29,0.245,2.064C15.599,6.965,15.307,7.162,15.011,7.204z"/>
</svg>
