<?xml version="1.0" encoding="utf-8"?>
<!-- Generator: Adobe Illustrator 16.0.0, SVG Export Plug-In . SVG Version: 6.00 Build 0)  -->
<!DOCTYPE svg PUBLIC "-//W3C//DTD SVG 1.1//EN" "http://www.w3.org/Graphics/SVG/1.1/DTD/svg11.dtd">
<svg version="1.1" id="Layer_1" xmlns="http://www.w3.org/2000/svg" xmlns:xlink="http://www.w3.org/1999/xlink" x="0px" y="0px"
	 width="20px" height="20px" viewBox="0 0 20 20" enable-background="new 0 0 20 20" xml:space="preserve">
<image overflow="visible" width="22" height="24" xlink:href="../../../../../../../Users/ktantikarun/Desktop/png/glyphicons-64-power.png"  transform="matrix(1 0 0 1 31 -15.9165)">
</image>
<path fill="#C4C4C4" d="M13.414,2.502c0.123,0.739,0.026,1.513-0.267,2.195C18.86,7.518,17.815,18,10.001,18
	C2.124,18,1.122,7.346,6.989,4.627C6.711,3.94,6.635,3.168,6.771,2.435c-3.42,1.303-5.855,4.604-5.855,8.481
	C0.916,15.932,4.983,20,10,20c5.016,0,9.084-4.068,9.084-9.084C19.084,7.108,16.737,3.852,13.414,2.502z"/>
<polygon fill="#C4C4C4" points="6.989,4.627 6.771,2.435 5.667,4.042 "/>
<polygon fill="#C4C4C4" points="13.147,4.697 13.414,2.502 14,3.6 "/>
<rect x="8.625" fill="#C4C4C4" width="2.75" height="7.583"/>
</svg>
