<?xml version="1.0" encoding="utf-8"?>
<!-- Generator: Adobe Illustrator 16.0.0, SVG Export Plug-In . SVG Version: 6.00 Build 0)  -->
<!DOCTYPE svg PUBLIC "-//W3C//DTD SVG 1.1//EN" "http://www.w3.org/Graphics/SVG/1.1/DTD/svg11.dtd">
<svg version="1.1" id="Layer_1" xmlns="http://www.w3.org/2000/svg" xmlns:xlink="http://www.w3.org/1999/xlink" x="0px" y="0px"
	 width="20px" height="20px" viewBox="0 0 20 20" enable-background="new 0 0 20 20" xml:space="preserve">
<image overflow="visible" width="26" height="25" xlink:href="../../../../../../../Users/ktantikarun/Desktop/png/glyphicons-41-stats.png"  transform="matrix(1 0 0 1 22.666 -5.1294)">
</image>
<line fill="none" stroke="#C4C4C4" stroke-width="2" stroke-miterlimit="10" x1="0.917" y1="0" x2="0.917" y2="20.333"/>
<line fill="none" stroke="#C4C4C4" stroke-width="2" stroke-miterlimit="10" x1="0" y1="19.083" x2="20" y2="19.083"/>
<line fill="none" stroke="#C4C4C4" stroke-miterlimit="10" x1="4.576" y1="0.006" x2="4.534" y2="18.673"/>
<line fill="none" stroke="#C4C4C4" stroke-miterlimit="10" x1="7.68" y1="0.009" x2="7.638" y2="18.674"/>
<line fill="none" stroke="#C4C4C4" stroke-miterlimit="10" x1="10.764" y1="0.009" x2="10.722" y2="18.674"/>
<line fill="none" stroke="#C4C4C4" stroke-miterlimit="10" x1="13.929" y1="0.005" x2="13.887" y2="18.67"/>
<line fill="none" stroke="#C4C4C4" stroke-miterlimit="10" x1="17.013" y1="0.009" x2="16.971" y2="18.675"/>
<line fill="none" stroke="#C4C4C4" stroke-miterlimit="10" x1="20.097" y1="15.262" x2="1.43" y2="15.229"/>
<line fill="none" stroke="#C4C4C4" stroke-miterlimit="10" x1="20.097" y1="12.052" x2="1.43" y2="12.02"/>
<line fill="none" stroke="#C4C4C4" stroke-miterlimit="10" x1="20.076" y1="8.861" x2="1.41" y2="8.829"/>
<line fill="none" stroke="#C4C4C4" stroke-miterlimit="10" x1="20.056" y1="5.72" x2="1.388" y2="5.688"/>
<line fill="none" stroke="#C4C4C4" stroke-miterlimit="10" x1="20.056" y1="2.61" x2="1.389" y2="2.578"/>
<line fill="none" stroke="#C4C4C4" stroke-width="1.3" stroke-miterlimit="10" x1="1.388" y1="18.672" x2="7.125" y2="13.083"/>
<line fill="none" stroke="#C4C4C4" stroke-width="1.3" stroke-miterlimit="10" x1="7.125" y1="13.083" x2="13.929" y2="10"/>
<line fill="none" stroke="#C4C4C4" stroke-width="1.3" stroke-miterlimit="10" x1="14.438" y1="9.844" x2="18.062" y2="1.844"/>
<ellipse fill="#C4C4C4" cx="7.125" cy="13.354" rx="1.962" ry="1.938"/>
<ellipse fill="#C4C4C4" cx="14.437" cy="9.844" rx="1.976" ry="2.01"/>
<ellipse fill="#C4C4C4" cx="18.001" cy="1.906" rx="1.874" ry="1.906"/>
</svg>
